<svg id="background" xmlns="http://www.w3.org/2000/svg" viewBox="0 0 1279.34 796.33"><title>scenef1</title><rect x="0.34" y="0.93" width="1276.76" height="254.64" transform="translate(1277.9 255.57) rotate(-180)" style="fill:#ededed"/><rect x="0.34" y="257" width="1276.76" height="540.26" transform="translate(1277.9 1053.34) rotate(-180)" style="fill:#77cfd8"/><g id="Layer_8" data-name="Layer 8"><path d="M1278.56,34.67s-61.3-57.83-111,12.72c0,0-50.89-19.66-65.93,19.66,0,0-62.46-10.41-56.67,27.76l164.24,2.31-30.07,9.25h98.31Z" transform="translate(0.46 -0.93)" style="fill:#fff"/></g><g id="Layer_8_copy" data-name="Layer 8 copy"><path d="M-.46,43.89S83.87-38.6,188.35,62.22c0,0,84.32-22,108.15,29.33,0,0,89.82-9.17,97.15,27.5L489,115.38l-23.83,7.33L599,120.88s-9.17,16.5-45.83,11c0,0-16.5,16.5-51.33,11,0,0-49.49,18.33-108.15,11l-21.56-.43L408.35,150l-143.23,1.73s19-25.89,59.54-19c0,0,24.16-20.71,50-11.22,0,0-18.12-12.94-58.67-6S195.22,125,183.14,93.91c0,0-79.38,39.69-182.93,20.71Z" transform="translate(0.46 -0.93)" style="fill:#f6fbf7"/><path d="M360.73,39.51l15,.72s8.58-7.15,14.3-3.58c0,0,4.29-10.73,19.31-5.72,0,0,21.45-22.17,44.34,7.15,0,0,13.59-5.72,18.59,6.44,0,0,26.46-2.15,27.17,6.44,0,0,24.31-2.86,24.31,7.87H460.14l11.44,4.29s-54.35-1.43-64.36-10c0,0-17.88,3.58-22.17-2.86C385,50.24,362.16,51,360.73,39.51Z" transform="translate(0.46 -0.93)" style="fill:#f6fbf7"/><path d="M889.36,36.35s2.55,14-30.58,6.05c0,0,7.33,19.11-53.52,9.56,0,0-19.11,5.73-35,3.5l-15.57,3.36C754.65,48.09,779,51,779,51c.72-8.58,27.17-6.44,27.17-6.44,5-12.16,18.59-6.44,18.59-6.44,22.88-29.32,44.34-7.15,44.34-7.15,15-5,19.31,5.72,19.31,5.72" transform="translate(0.46 -0.93)" style="fill:#f6fbf7"/></g><circle cx="273.65" cy="58.12" r="39.41" style="fill:#ffe000"/><polygon points="1279.34 184.77 1028.46 23.61 817.86 159.13 761.09 104.19 712.03 141.93 621.91 140.23 508.82 192.43 367.56 92.64 105.77 169.1 2.09 131.52 0.8 254.63 1277.34 254.63 1279.34 184.77" style="fill:#8ab3a2"/><polygon points="1110.16 217.05 1066.09 104.3 1034.99 128.93 1032.4 51.17 954.64 74.49 793.94 187.25 748.58 149.66 760.24 110.78 676 178.17 525.67 213.16 420.69 189.84 419.4 158.73 392.18 175.58 367.56 92.64 114.84 200.2 105.77 169.1 2.09 131.52 0.8 254.63 1111.45 254.63 1110.16 217.05" style="fill:#a2c4b6"/><polygon points="1279.34 263 1.1 263 1.1 209.9 81.68 242.86 235.51 215.39 393 224.55 616.42 222.72 761.09 233.7 843.5 217.22 938.72 228.21 980.84 204.4 1277.51 226.38 1279.34 263" style="fill:#6f9645"/><path d="M310.58,287.73s-136.16-1-104,2.91-15.69,16.91-61.74,11.15C98.31,296-34.47,314.39,48.41,312.45S50.1,327,127.91,323.6s181-5.82,232.57-1.94,45.67-10.66-39.75-15,5.92-8.72,51.59-8.72S370.62,288.7,310.58,287.73Z" transform="translate(0.46 -0.93)" style="fill:#63b8bc"/><path d="M1100.75,365.11S831.49,364,895,368.55s-31,20-122.09,13.21c-92-6.89-354.56,14.93-190.66,12.63s3.34,17.22,157.21,13.21,357.91-6.89,459.93-2.3,90.31-12.63-78.61-17.8,11.71-10.33,102-10.33S1219.5,366.26,1100.75,365.11Z" transform="translate(0.46 -0.93)" style="fill:#63b8bc"/><path d="M617.7,730.79S348.43,729.64,412,734.23s-31,20-122.09,13.21c-92-6.89-354.56,14.93-190.66,12.63s3.34,17.22,157.21,13.21,357.91-6.89,459.93-2.3,90.31-12.63-78.61-17.8,11.71-10.33,102-10.33S736.44,731.94,617.7,730.79Z" transform="translate(0.46 -0.93)" style="fill:#63b8bc"/><path d="M1099.12,632.34s-136.16-1-104,2.91-15.69,16.91-61.74,11.15c-46.51-5.82-179.29,12.6-96.41,10.66s1.69,14.54,79.5,11.15,181-5.82,232.57-1.94,45.67-10.66-39.75-15,5.92-8.72,51.59-8.72S1159.16,633.31,1099.12,632.34Z" transform="translate(0.46 -0.93)" style="fill:#63b8bc"/></svg>