<svg xmlns="http://www.w3.org/2000/svg" viewBox="0 0 1280.13 799"><title>introbackground</title><g id="Layer_1" data-name="Layer 1"><rect x="0.09" y="0.48" width="1280.04" height="605.64" transform="translate(1280.21 606.12) rotate(-180)" style="fill:#ffe000"/><rect x="0.09" y="542.86" width="1280.05" height="256.63" transform="translate(1280.22 1341.85) rotate(-180)" style="fill:#77cfd8"/><path d="M0,508s75.44-39.15,105.52-19.58,101,37,124.61,23.92,85.94-43.49,116-19.57S460,529.71,483.66,508s85.94-34.79,118.17-6.52S724.29,525.36,745.77,508s85.94-41.32,107.42-8.7,75.2,34.79,105.28,15.22,77.35-37,101-10.87,66.6,34.79,98.83,6.52,64.45-8.7,88.09,6.52S1280,543.34,1280,543.34L0,543.2Z" transform="translate(0 -0.48)" style="fill:#77cfd8"/><path d="M891,76.93s2.55,14-30.58,6.05c0,0,7.33,19.11-53.52,9.56,0,0-19.11,5.73-35,3.5L756.33,99.4c0-10.73,24.31-7.87,24.31-7.87.72-8.58,27.17-6.44,27.17-6.44,5-12.16,18.59-6.44,18.59-6.44,22.88-29.32,44.34-7.15,44.34-7.15,15-5,19.31,5.72,19.31,5.72" transform="translate(0 -0.48)" style="fill:#f6fbf7"/><path d="M1278.38,142.52s-61.3-57.83-111,12.72c0,0-50.89-19.66-65.93,19.66,0,0-62.46-10.41-56.67,27.76L1209,205l-30.07,9.25h98.31Z" transform="translate(0 -0.48)" style="fill:#fff"/></g><g id="Layer_2" data-name="Layer 2"><path d="M421.21,160.18l123.11-.3s-9.17,13-45.83,8.66c0,0-16.5,13-51.33,8.66,0,0-49.49,14.44-108.15,8.66l-21.56-.34,36.24-2.72-143.23,1.36s19-20.39,59.54-15c0,0,27.14-33,57.55-18.29,0,0,26.57-25.5,54.14.56C381.69,151.5,412,138.47,421.21,160.18Z" transform="translate(0 -0.48)" style="fill:#fff"/><path d="M253,55.25s-61.3-45.55-111,10c0,0-50.89-15.49-65.93,15.49,0,0-62.46-8.2-56.67,21.86l164.24,1.82-30.07,7.29H318.41S342,48.15,253,55.25Z" transform="translate(0 -0.48)" style="fill:#fff"/></g></svg>