<svg id="man_boat" xmlns="http://www.w3.org/2000/svg" viewBox="0 0 845.75 448.47"><title>man_boat_scene1</title><g id="man"><path d="M581.58,366.33s-2-7.09,10.52-3.29,6.9-4.05,4.27-15.45c0,0-20.2-3.06-20.4-3L569.09,359S576.32,367.09,581.58,366.33Z" transform="translate(-26.8 -123.42)" style="fill:#ecc99c"/><polygon points="549.33 220.86 557.85 233.64 478.98 281.54 469.11 189.39 497.75 242.87 549.33 220.86" style="fill:#d3340f"/><path d="M583.1,356.34s-2,9.21,10.52,4.27,6.9,5.26,4.27,20.06c0,0-21.17,4.65-21.37,4.6l-5.92-19.4S577.84,355.35,583.1,356.34Z" transform="translate(-26.8 -123.42)" style="fill:#f7d8ab"/><path d="M431.93,436.41l219.17.93s-22-41.85-36.89-53.32-104.78,10.85-104.78,10.85Z" transform="translate(-26.8 -123.42)" style="fill:#273351"/><path d="M509.43,401.07s83.39-22,98.27-10.54,34.72,46.81,34.72,46.81l-70.37-.93,2.17-14.26L566.78,437l-101.06-1.24,26.35-16.12,9-3.72-6.2,1.24,13-10.54Z" transform="translate(-26.8 -123.42)" style="fill:#33426d"/><path d="M457.78,257s-64.87,58.36-48.25,183.42l24.85-1.4L464,424.85l1.18-7.34.71,6.39,38.81-18.22-8.76-134.41Z" transform="translate(-26.8 -123.42)" style="fill:#fd5a2b"/><polygon points="451.44 151.57 454.77 145.55 469.11 147.85 477.87 282.26 447.31 296.38 445.09 265.77 429.71 236.11 430.18 220.88 422.09 224.69 431.13 214.54 431.55 202.42 427.97 185.43 451.44 151.57" style="fill:#e54c29"/><polygon points="430.22 123.9 474.1 136.18 476.91 155.83 424.44 134.33 430.22 123.9" style="fill:#ff8676"/><polygon points="453.26 170.46 444.26 168.09 424.39 178.97 423.68 201.22 440.71 231.27 448.29 232.93 442.61 233.64 478.58 296.58 549.33 265.11 540.1 244.29 494.67 258.25 493.96 267.24 493.01 259.43 484.49 271.97 484.73 267.95 491.59 259.67 453.26 170.46" style="fill:#fc6947"/><polygon points="542.47 239.32 536.32 240.26 546.26 271.03 556.43 265.35 542.47 239.32" style="fill:#ff8676"/><path d="M508.5,162.15l.42,20.19,10,28s1.55,2.82-8.47,2l2.33,19-17.15,27.17-34-9.91s-.78-32-2.73-38C457.75,207,475,167.09,475,167.09Z" transform="translate(-26.8 -123.42)" style="fill:#f7d8ab"/><polyline points="454.54 84.24 450.48 84.39 435.37 71.32 441.07 60.04 453.23 65.82 454.54 84.24" style="fill:#ffe2b7"/><path d="M519.22,157.42l-28.1,15.86-4.87-3,.47,19-10.52-4.55-1.1,2-4.55-.31-4.87,10.83,2,2.2-8.48,13s-14.92-37.05-15.39-40S519.22,157.42,519.22,157.42Z" transform="translate(-26.8 -123.42)" style="fill:#6b0f01"/><polygon points="477.19 53.62 465.57 53.94 465.89 57.39 477.19 57.23 477.19 53.62" style="fill:#6b0f01"/><circle cx="470.37" cy="64.43" r="2.2" style="fill:#2c261c"/><polygon points="461.38 75.48 447.71 106.1 453.49 126.73 468.34 138.82 492.52 149.47 485.82 105.31 477.94 106.76 472.55 102.82 478.2 102.29 484.9 99.93 483.85 91.65 477.28 93.62 472.55 97.04 461.77 82.97 461.38 75.48" style="fill:#6b0f01"/><polygon points="451.8 72.02 449.17 73 450.38 76.4 452.57 77.49 452.89 81.43 449.83 81.54 444.8 73.33 445.78 67.42 451.91 67.53 451.8 72.02" style="fill:#ecc99c"/><polygon points="525.71 24.31 445.77 24.96 388.74 50.55 394.6 56.8 492.81 34.92 522.08 30.45 525.71 24.31" style="fill:#cca811"/><polygon points="479.5 24.96 468.33 0 452.13 6.13 414.68 12.92 416.21 37.89 479.5 24.96" style="fill:#af8f0c"/><polygon points="452.33 6.64 435.5 16.07 448.74 6.87 452.33 6.64" style="fill:#cca811"/></g><g id="fishing_gear"><polygon points="431.02 284.43 422.17 293.47 479.81 345.32 487.72 335.26 431.02 284.43" style="fill:#4e433e"/><path d="M92.05,247.67s175.31-9.15,362.57,170.15l4.14-2.24S289.92,241.29,92.05,247.67" transform="translate(-26.8 -123.42)" style="fill:#4e433e"/><path d="M454.3,417s-93.86-10.59-62-52.85c0,0-72.12-3.29-72.81-48,0,0-108.75-14.93-145.11-58.52,0,0-50.59,8.52-82.3-10l.41,32.11" transform="translate(-26.8 -123.42)" style="fill:none;stroke:#423731;stroke-miterlimit:10;stroke-width:1.02324189987527px"/><circle cx="452.33" cy="429.94" r="15.3" transform="translate(-126 598.51) rotate(-71.44)" style="fill:#ff0808"/><circle cx="452.41" cy="429.85" r="10.61" transform="matrix(0.32, -0.95, 0.95, 0.32, -125.85, 598.53)" style="fill:#ffb84c"/><circle cx="452.34" cy="429.5" r="2.18" transform="translate(-125.57 598.22) rotate(-71.44)" style="fill:#4c403d"/><path d="M92.46,283.07c.37,1.23.66,2.45.93,3.68a2.17,2.17,0,0,1,.08.92c0,.31,0,.61,0,.92v9.47l-.12.21A13.3,13.3,0,0,1,90.27,302a5.85,5.85,0,0,1-2.38,1.19,4,4,0,0,1-2.84-.48,9,9,0,0,1-3.13-3.85,15.23,15.23,0,0,1-.62-4.6c.81,1.31,1.67,2.55,2.45,3.72a6.76,6.76,0,0,0,2.3,3,2,2,0,0,0,1.43.26,3.91,3.91,0,0,0,1.54-.8,11.44,11.44,0,0,0,2.55-3.1l-.12.48v-9.2c0-.31,0-.61,0-.92a2.16,2.16,0,0,1,.08-.92C91.8,285.52,92.08,284.29,92.46,283.07Z" transform="translate(-26.8 -123.42)" style="fill:#423731"/><circle cx="65.68" cy="158.27" r="1.92" style="fill:none;stroke:#423731;stroke-miterlimit:10;stroke-width:0.808104312858329px"/></g><g id="basket"><ellipse cx="309.91" cy="267.48" rx="46.99" ry="8.56" style="fill:#1286cc"/><path d="M304.86,467.66,289.71,391.9c0-3.07,21-5.55,47-5.55s47,2.49,47,5.55L369,467.66S338.17,479.89,304.86,467.66Z" transform="translate(-26.8 -123.42)" style="fill:#1286cc"/><path d="M336.71,386.34c-26,0-47,2.49-47,5.55l15.14,75.76c33.31,12.23,64.18,0,64.18,0Z" transform="translate(-26.8 -123.42)" style="fill:#17a1e5"/><ellipse cx="309.91" cy="267.02" rx="46.99" ry="4.1" style="fill:#1286cc"/><path d="M383,390.9s-39.38,65.45-92.57.37" transform="translate(-26.8 -123.42)" style="fill:none;stroke:#6c2b00;stroke-miterlimit:10;stroke-width:2px"/></g><g id="boat"><path d="M597.94,471.05s-269.27-1.15-205.71,3.44-31,20-122.09,13.21c-92-6.89-354.56,14.93-190.66,12.63s3.34,17.22,157.21,13.21,357.91-6.89,459.93-2.3,90.31-12.63-78.61-17.8,11.71-10.33,102-10.33S716.68,472.2,597.94,471.05Z" transform="translate(-26.8 -123.42)" style="fill:#63b8bc"/><path d="M686.85,460.3s-304.26-3-232.44,8.87-35.05,51.58-138,34C212.51,485.44-84.19,541.64,101,535.72s3.78,44.37,177.64,34,403.8-7.76,519.69-5.92c77.89,1.24,137.68-36.29-53.19-49.6s-22.4-22.86,79.65-22.86S821,463.25,686.85,460.3Z" transform="translate(-26.8 -123.42)" style="fill:#63b8bc"/><polygon points="171.19 332.92 177.05 401.36 191.23 396.47 191.23 333.9 171.19 332.92" style="fill:#999"/><polygon points="247.26 283.79 237.58 283.79 237.27 276.87 250.2 276.87 250.2 280.86 247.26 283.79" style="fill:#999"/><polygon points="152.55 276.52 152.9 322.86 162.25 335.8 238.31 335.31 238.31 276.87 152.55 276.52" style="fill:#b3b3b3"/><polygon points="229.07 256.47 165 256.81 152.55 276.52 238.31 276.87 229.07 256.47" style="fill:#999"/><rect x="192.83" y="409.29" width="25.59" height="4.84" transform="translate(384.46 699.99) rotate(-180)" style="fill:#999"/><rect x="192.83" y="420" width="25.59" height="4.84" transform="translate(384.46 721.43) rotate(-180)" style="fill:#999"/><rect x="192.83" y="430.72" width="25.59" height="4.84" transform="translate(384.46 742.87) rotate(-180)" style="fill:#999"/><path d="M795.48,434.62H224.37l39,107.79,464.37,1.26S784.82,501.58,795.48,434.62Z" transform="translate(-26.8 -123.42)" style="fill:#ffd398"/><path d="M762,507.07H579.45l1.42,3.59,165.27-.28S758.64,509.1,762,507.07Z" transform="translate(-26.8 -123.42)" style="fill:#eabd86"/><path d="M538,477.27H239.83l2.32,2.51,269.89-.2S532.44,478.68,538,477.27Z" transform="translate(-26.8 -123.42)" style="fill:#fce3bb"/><path d="M485.49,510H308.41l1.38,1.18,160.28-.09S482.19,510.66,485.49,510Z" transform="translate(-26.8 -123.42)" style="fill:#fce3bb"/><path d="M723.4,524.24h-437l3.4,3.68,395.51-.29S715.24,526.32,723.4,524.24Z" transform="translate(-26.8 -123.42)" style="fill:#eabd86"/><path d="M637.51,457.52H396.59l1.87,4.39,218.06-.35S633,460,637.51,457.52Z" transform="translate(-26.8 -123.42)" style="fill:#eabd86"/><path d="M795.48,434.62H224.37l4.44,11.76,516.93-.93S784.82,441.26,795.48,434.62Z" transform="translate(-26.8 -123.42)" style="fill:#6c2b00"/><path d="M754.09,550.89s11.08-46-72.24-24.12S589,512.26,522.44,525.51,473,548,416.27,531.48s-74.46,15.57-108.22,1.46c-31.12-13-75.65,39-75.65,39Z" transform="translate(-26.8 -123.42)" style="fill:#63b8bc"/></g></svg>