<svg id="man_dock" xmlns="http://www.w3.org/2000/svg" viewBox="0 0 420.05 627.52"><title>man_dock_scene1</title><g id="dock"><polygon points="195.15 347.87 174.24 357.59 174.46 271.64 195.15 271.64 195.15 347.87" style="fill:#a2743d"/><rect x="373.43" y="272.98" width="27.44" height="115.83" style="fill:#a2743d"/><polygon points="0.92 627.02 399.4 627.02 393.57 329.25 193.98 329.5 0.92 627.02" style="fill:#e4b175;stroke:#684826;stroke-miterlimit:10"/><rect x="373.43" y="272.98" width="21.96" height="80.47" style="fill:#c19260"/><ellipse cx="387.15" cy="272.63" rx="13.72" ry="2.58" style="fill:#c4a25b"/><polygon points="77.62 507.11 87.59 506.68 97.56 506.33 117.5 505.66 157.38 504.75 167.35 504.53 177.32 504.41 197.27 504.2 237.15 503.77 277.04 503.81 296.98 503.82 306.95 503.85 316.93 503.97 356.81 504.48 376.76 504.96 386.73 505.2 396.7 505.53 396.71 505.83 237.17 506.77 77.62 507.41 77.62 507.11" style="fill:#684826"/><polygon points="51.1 551.84 61.95 551.4 72.79 551.07 94.48 550.41 137.87 549.54 148.71 549.32 159.56 549.22 181.25 549.03 224.63 548.65 268.02 548.75 289.71 548.8 300.56 548.84 311.41 548.99 354.79 549.58 376.49 550.09 387.34 550.36 398.18 550.72 398.19 551.03 224.64 551.74 51.1 552.15 51.1 551.84" style="fill:#684826"/><polygon points="22.92 595.24 34.65 594.82 46.37 594.49 69.83 593.85 116.74 593 128.46 592.79 140.19 592.7 163.65 592.52 210.55 592.18 257.46 592.31 280.92 592.37 292.65 592.42 304.38 592.57 351.29 593.2 374.74 593.73 386.47 594 398.2 594.37 398.2 594.67 210.56 595.27 22.92 595.55 22.92 595.24" style="fill:#684826"/><polygon points="201.97 347.87 182.16 348.7 181.97 271.64 201.97 271.64 201.97 347.87" style="fill:#c19260"/><path d="M281.55,521.67l6.64-.39,6.64-.29,13.28-.57,26.56-.71,6.64-.18,6.64-.1,13.28-.18,26.56-.13,26.56.14c8.85.15,17.7.17,26.56.46l26.56.71,13.28.57,6.64.29,6.64.38v.3l-106.23.15L281.55,522Z" transform="translate(-100.46 -172.52)" style="fill:#684826"/><ellipse cx="188.25" cy="271.32" rx="13.72" ry="2.37" style="fill:#c4a25b"/><polygon points="103.69 469.2 112.82 468.84 121.95 468.57 140.22 468.05 176.75 467.43 185.88 467.28 195.01 467.24 213.28 467.17 249.81 467.05 286.34 467.38 304.6 467.54 313.73 467.64 322.86 467.84 359.39 468.65 377.65 469.27 386.79 469.58 395.92 469.99 395.92 470.29 249.8 470.04 103.69 469.5 103.69 469.2" style="fill:#684826"/><polygon points="121.85 439.19 130.39 438.75 138.93 438.41 156 437.74 190.16 436.83 198.7 436.6 207.24 436.49 224.31 436.27 258.47 435.85 292.63 435.88 309.71 435.9 318.25 435.92 326.8 436.05 360.96 436.56 378.04 437.03 386.58 437.27 395.13 437.61 395.13 437.91 258.49 438.85 121.85 439.49 121.85 439.19" style="fill:#684826"/><path d="M241.27,583.27l7.92-.41,7.92-.32,15.84-.62,31.69-.81,7.92-.2,7.92-.09,15.85-.17,31.69-.32,31.69.13,15.85.07c2.64,0,5.28,0,7.92,0l7.92.15,31.69.61,15.85.52,7.92.26,7.92.36v.3L368,583.33l-126.77.25Z" transform="translate(-100.46 -172.52)" style="fill:#684826"/><path d="M258.65,558l7.38-.39,7.38-.29,14.76-.57,29.52-.71,7.38-.18,7.38-.1,14.76-.18,29.52-.13,29.52.14c9.84.15,19.68.17,29.52.46l29.52.71,14.76.57,7.38.29,7.38.38v.3l-118.08.15-118.08-.15Z" transform="translate(-100.46 -172.52)" style="fill:#684826"/><path d="M271.28,538.25l7-.39,7-.29,13.92-.57,27.84-.71,7-.18,7-.1,13.92-.18,27.84-.13,27.84.14c9.28.15,18.56.17,27.84.46l27.84.71,13.92.57,7,.29,7,.38v.3l-111.36.15-111.36-.15Z" transform="translate(-100.46 -172.52)" style="fill:#684826"/></g><g id="standing_man"><polygon points="277.11 83.84 277.83 106.4 288.75 118.77 302.58 97.66 301.12 80.2 277.11 83.84" style="fill:#f7d8ab"/><polygon points="272.74 69.28 267.65 65.65 268.38 75.83 274.2 79.47 272.74 69.28" style="fill:#f7d8ab"/><polygon points="304.66 69.28 309.76 65.65 309.03 75.83 303.21 79.47 304.66 69.28" style="fill:#f7d8ab"/><polygon points="271.91 54.16 272.87 82.29 287.3 93.3 304.1 83.59 304.92 54.49 271.91 54.16" style="fill:#6b0f01"/><polygon points="274.27 96.82 306.91 97.08 312.54 110.13 272.24 105.12 274.27 96.82" style="fill:#ff8676"/><polygon points="321.63 53.59 285.74 47.17 257.77 55.11 259.81 58.72 305.88 56.1 319.43 56.35 321.63 53.59" style="fill:#cca811"/><polygon points="305.42 50.88 302.2 37.38 293.54 38.92 274.24 38.78 272.65 51.37 305.42 50.88" style="fill:#af8f0c"/><polygon points="293.6 39.19 284.32 42.31 291.79 38.97 293.6 39.19" style="fill:#cca811"/><g id="gear"><polygon points="339.54 272.58 348.43 271.66 351.77 326.31 342.73 326.25 339.54 272.58" style="fill:#4e433e"/><path d="M512.16,172.57s-82.07,92.87-65.24,275.15L443.87,449s-22.15-169.89,68.29-276.46" transform="translate(-100.46 -172.52)" style="fill:#4e433e"/><path d="M446.6,447.18s35.38-56.53-2-57.5c0,0,29.87-41.31,5.47-61.32,0,0,39.52-66.66,31.41-105.91,0,0,26.93-24.22,30.64-49.87l.65,31.26" transform="translate(-100.46 -172.52)" style="fill:none;stroke:#423731;stroke-miterlimit:10;stroke-width:0.722440099905476px"/><circle cx="454.63" cy="451.77" r="10.8" transform="translate(-225.49 552.72) rotate(-70.08)" style="fill:#ff0808"/><circle cx="454.54" cy="451.78" r="7.49" transform="translate(-225.56 552.64) rotate(-70.08)" style="fill:#ffb84c"/><circle cx="454.38" cy="451.59" r="1.54" transform="translate(-225.48 552.36) rotate(-70.08)" style="fill:#4c403d"/><path d="M513,206.9c.23.88.39,1.75.55,2.62a1.53,1.53,0,0,1,0,.65l0,.65-.05,1.3-.22,5.19-.07-.34a8.07,8.07,0,0,0,1.71,2.26,2.76,2.76,0,0,0,1.06.61,1.42,1.42,0,0,0,1-.14,4.77,4.77,0,0,0,1.71-2.05c.58-.8,1.23-1.65,1.84-2.55a10.75,10.75,0,0,1-.58,3.23,6.34,6.34,0,0,1-2.32,2.62,2.85,2.85,0,0,1-2,.26,4.13,4.13,0,0,1-1.64-.91,9.39,9.39,0,0,1-2.05-2.71l-.08-.15v-.19l.22-5.19.05-1.3,0-.65a1.53,1.53,0,0,1,.08-.65C512.44,208.61,512.67,207.75,513,206.9Z" transform="translate(-100.46 -172.52)" style="fill:#423731"/><circle cx="513" cy="205.93" r="1.35" transform="translate(185.23 537.3) rotate(-87.59)" style="fill:none;stroke:#423731;stroke-miterlimit:10;stroke-width:0.570546378707304px"/></g><path d="M434.59,286.88s-42.37-30.09-86,1.84c0,0,.29,1.63.78,4.48,3,17.37,13.18,80,8.43,93.14l69.38,1.84Z" transform="translate(-100.46 -172.52)" style="fill:#fd5a2b"/><path d="M438.88,347l.33,19.39,6.74,1.46s8.75-9.42,9.42-13.45-1-11.1-9.08-10.09S438.88,347,438.88,347Z" transform="translate(-100.46 -172.52)" style="fill:#f7d8ab"/><g id="basket"><ellipse cx="235.14" cy="253.01" rx="20.41" ry="3.72" style="fill:#1286cc"/><path d="M321.77,458.87,315.19,426c0-1.33,9.14-2.41,20.41-2.41S356,424.63,356,426l-6.37,32.91S336.24,464.18,321.77,458.87Z" transform="translate(-100.46 -172.52)" style="fill:#1286cc"/><path d="M335.61,423.55c-11.27,0-20.41,1.08-20.41,2.41l6.58,32.91c14.47,5.31,27.88,0,27.88,0Z" transform="translate(-100.46 -172.52)" style="fill:#17a1e5"/><ellipse cx="235.14" cy="252.81" rx="20.41" ry="1.78" style="fill:#1286cc"/><path d="M355.7,425.53s-17.11-27.69-40.21-.16" transform="translate(-100.46 -172.52)" style="fill:none;stroke:#6c2b00;stroke-miterlimit:10;stroke-width:0.857334455252993px"/></g><polygon points="235 221.18 226.35 235.19 231.29 247.14 240.35 247.55 246.12 243.02 246.12 221.6 235 221.18" style="fill:#f7d8ab"/><polygon points="230.36 222.42 249.02 117.81 259.14 177.72 249.84 226.14 230.36 222.42" style="fill:#fc6947"/><polygon points="333.82 115.9 349.14 176.35 338.75 193.86 327.26 165.96 333.82 115.9" style="fill:#fc6947"/><polygon points="257.38 213.82 266.58 379.27 294.88 379.27 295.99 256.62 322.07 379.82 349.27 377.6 326.76 215.67 257.38 213.82" style="fill:#33426d"/><polygon points="265.19 372.44 272.83 415.11 294.84 416.46 294.84 368.39 265.19 372.44" style="fill:#41413e"/><polygon points="320 373.34 327.63 416.01 349.64 417.36 349.64 369.29 320 373.34" style="fill:#41413e"/><polygon points="272.96 415.11 300.56 413.35 299.86 422.11 271.76 420.86 272.96 415.11" style="fill:#41413e"/><polygon points="327.43 412.61 355.03 410.84 354.33 419.61 326.23 418.36 327.43 412.61" style="fill:#41413e"/></g></svg>